<svg xmlns="http://www.w3.org/2000/svg" viewBox="0 0 1288.64 372.48"><defs><style>.cls-1{fill:#1d1d1b;stroke:#1d1d1b;stroke-miterlimit:10;stroke-width:3px;}</style></defs><g id="Capa_2" data-name="Capa 2"><path class="cls-1" d="M-1872.29-41.06l18.78-77.48s17.22-50.87,26.61-85.3,22.7-86.87,22.7-86.87a30.16,30.16,0,0,1,7.82-3.13c5.48-1.57,30.52-1.57,33.65,0S-1687.6-8.19-1687.6-8.19s2.35,5,0,6-49,2.09-49,2.09-4.43,1.56-5.22-7.57-17.74-71.48-17.74-71.48-1.82-13.3-6.26-14.34-42.65-.79-42.65-.79-3.72-1.17-4.89,3.92-10.37,47.54-10.37,47.54.78,4.11-6.46,3.91-40.1-.58-40.1-.58S-1872.74-39.21-1872.29-41.06Zm88.82-164-21.91,69.27s-2.74,3.91,4.7,4.3,35.21,0,35.21,0,5.09.78,3.92-5.09S-1781.12-205-1781.12-205Z" transform="translate(1873.85 370.98)"/><path class="cls-1" d="M-1204.45-41.06l18.78-77.48s17.22-50.87,26.61-85.3,22.7-86.87,22.7-86.87a30.38,30.38,0,0,1,7.82-3.13c5.48-1.57,30.53-1.57,33.66,0s75.13,285.65,75.13,285.65,2.35,5,0,6-49,2.09-49,2.09-4.43,1.56-5.21-7.57-17.74-71.48-17.74-71.48-1.83-13.3-6.26-14.34-42.66-.79-42.66-.79-3.71-1.17-4.89,3.92-10.37,47.54-10.37,47.54.79,4.11-6.45,3.91-40.11-.58-40.11-.58S-1204.9-39.21-1204.45-41.06Zm88.83-164-21.92,69.27s-2.73,3.91,4.7,4.3,35.22,0,35.22,0,5.08.78,3.91-5.09S-1113.27-205-1113.27-205Z" transform="translate(1873.85 370.98)"/><path class="cls-1" d="M-772.45-41.06l18.78-77.48s17.22-50.87,26.61-85.3,22.7-86.87,22.7-86.87a30.38,30.38,0,0,1,7.82-3.13c5.48-1.57,30.53-1.57,33.66,0S-587.75-8.19-587.75-8.19s2.35,5,0,6-49,2.09-49,2.09-4.43,1.56-5.21-7.57-17.74-71.48-17.74-71.48-1.83-13.3-6.26-14.34-42.66-.79-42.66-.79-3.71-1.17-4.89,3.92-10.37,47.54-10.37,47.54.79,4.11-6.45,3.91-40.11-.58-40.11-.58S-772.9-39.21-772.45-41.06Zm88.83-164-21.92,69.27s-2.73,3.91,4.7,4.3,35.22,0,35.22,0,5.08.78,3.91-5.09S-681.27-205-681.27-205Z" transform="translate(1873.85 370.98)"/><path class="cls-1" d="M-1670.9-295h35s4.69-1.69,7.82,6.66,42.26,113.74,43.31,115.3,3.65,0,3.65,0v-88.11c-.17-3.27-.47-6.77-1-10.46-.31-2.29-.68-4.47-1.08-6.56a71.85,71.85,0,0,1-1.56-7.73,76.36,76.36,0,0,1-.49-15.65c.27-6.92.88-8.46,2-9.68,1.9-2.16,4.7-2.64,6.39-2.87,6.94-1,25.86-1,51.06.19a18.06,18.06,0,0,1,3.79,5.22,17.47,17.47,0,0,1,1.1,3c2.12,7.75.5,20.35.85,26.36h0c0,.46-3.45,162.51-.78,214.82a67.37,67.37,0,0,0,.78,7.05c.47,2.7,1,4.43,1.27,5.67,1.19,4.73,1.26,8.57,1.18,16.24-.08,7.11-.32,9.11-2,10.66-1.1,1-2.38,1.45-4.4,1.86a50,50,0,0,1-13.7.78c-10.68-.73-20.47-1-20.47-1s-8.35,0-13-13.56-57.91-143-57.91-143-3.65-5.74-3.65,3.65,1.56,129.39,1.56,129.39,2.61,9.92-4.17,9.39-32.35,0-32.35,0a6.89,6.89,0,0,1-4.37-1.57c-2-1.83-2.13-4.78-2.15-6-1.45-72.6,1-128.87,1-128.87s0-22.47-1-42.16c0,0-2.25-45-.84-70.8a11,11,0,0,1,2.08-6.26A9.46,9.46,0,0,1-1670.9-295Z" transform="translate(1873.85 370.98)"/><path class="cls-1" d="M-1000-295h35s4.69-1.69,7.82,6.66,42.26,113.74,43.31,115.3,3.65,0,3.65,0v-88.11c-.17-3.27-.47-6.77-1-10.46-.31-2.29-.67-4.47-1.07-6.56a69.13,69.13,0,0,1-1.57-7.73,77.07,77.07,0,0,1-.49-15.65c.28-6.92.88-8.46,2-9.68,1.9-2.16,4.7-2.64,6.39-2.87,6.94-1,25.86-1,51.06.19a18.06,18.06,0,0,1,3.79,5.22,17.47,17.47,0,0,1,1.1,3c2.12,7.75.5,20.35.85,26.36h0c0,.46-3.45,162.51-.78,214.82a67.37,67.37,0,0,0,.78,7.05c.47,2.7,1,4.43,1.27,5.67,1.19,4.73,1.26,8.57,1.18,16.24-.08,7.11-.32,9.11-2,10.66-1.1,1-2.38,1.45-4.4,1.86a50,50,0,0,1-13.7.78c-10.68-.73-20.47-1-20.47-1s-8.35,0-13.05-13.56-57.91-143-57.91-143-3.65-5.74-3.65,3.65,1.56,129.39,1.56,129.39,2.61,9.92-4.17,9.39-32.35,0-32.35,0a6.89,6.89,0,0,1-4.37-1.57c-2-1.83-2.13-4.78-2.15-6-1.45-72.6,1-128.87,1-128.87s0-22.47-1-42.16c0,0-2.25-45-.84-70.8a11,11,0,0,1,2.08-6.26A9.46,9.46,0,0,1-1000-295Z" transform="translate(1873.85 370.98)"/><path class="cls-1" d="M-1491.94-284.84s-2-5.48,2.34-5.87,28.57,0,28.57,0,3.52-2,4.3,5.87,0,239.87,0,239.87,2.35,5.87-4.69,6.26-28.18,0-28.18,0-2.84-.78-2.79-6.65S-1491.94-284.84-1491.94-284.84Z" transform="translate(1873.85 370.98)"/><path class="cls-1" d="M-825.75-284.4s-2-5.47,2.35-5.87,28.57,0,28.57,0,3.52-2,4.3,5.87,0,239.87,0,239.87,2.35,5.87-4.7,6.26-28.17,0-28.17,0-2.84-.78-2.79-6.65S-825.75-284.4-825.75-284.4Z" transform="translate(1873.85 370.98)"/><path class="cls-1" d="M-794.25-366.53a4.56,4.56,0,0,1,2.55-2.83c1.79-.53,3.65,1,4.3,1.46,3.26,2.52,11.29,7.23,23.38,13.9a5.47,5.47,0,0,1,1.17,1.95c1.35,3.92-2.32,8.42-3.62,10.08-7.87,10.11-21.14,35.1-23,38.74-.47.91-1.76,3.53-4,3.91-1.79.3-3.36-1-4.25-1.65-7.16-5.51-15.69-9-23.33-13.82a2.17,2.17,0,0,1-.59-.57c-1.4-2.1,1.94-6.6,2.74-7.73C-815.62-327.71-807-343-794.25-366.53Z" transform="translate(1873.85 370.98)"/><path class="cls-1" d="M-1429.73-317c-1.67,1.47-1.22,4.45-1.16,5,.89,8.27.91,293.52,0,300.86,0,.37-.41,2.55.78,3.61s2.94.53,3.59.39c6.88-1.48,25.84-.39,30.64-.11a3.29,3.29,0,0,0,2.49-.67,3.61,3.61,0,0,0,.66-2.93c-.33-2.85,1.41-85.8,4.1-205-.11-3.38.28-3.86.52-3.91,3-.65,14.79,55.07,40.68,126.54,1.47,4,2.66,7.25,3.19,8.68,1.17,3.16,2.33,4.48,3.94,5.71,2.56,2,3.75.65,15,1.16,0,0,5.13.23,8.29-1.75l.4-.26a9.72,9.72,0,0,0,3.21-4.15c.84-1.85,3.15-7.14,5.94-14.49,7.76-24.68,13.86-44.16,17.73-56.52,1.37-4.38,12.76-40.74,14.85-40.4,1.55.25.78,11.74.78,11.74,0,14.1,3.14,133.07,2.29,141-.06.49-.35,2.53.84,3.79s3.3,1.1,4,1c5.75-.41,27.75-.12,34.82.39,1.11.08,3.63.3,5.22-1.26,1.93-1.88,1.4-5.29,1.3-6-1.37-11.28.8-225.89,2.09-243.78a9.87,9.87,0,0,0-1.37-6.46c-3.32-4.86-11.19-4.08-26.8-4.11-5.19,0-12.52-.1-21.39-.52a7.38,7.38,0,0,0-4.44.42c-2.82,1.3-3.91,4.46-4.3,5.58-4.06,11.68-23.5,122.42-33.83,123.34-.92.08-2.32-.67-4.3-4.7q-10.61-33.09-21.2-66.19c-13.21-42.52-22.51-72.71-23-75.13a3.65,3.65,0,0,0-1-2,5,5,0,0,0-3.79-1c-4.32.33-53.52,1.31-57.91,1.22A4.15,4.15,0,0,0-1429.73-317Z" transform="translate(1873.85 370.98)"/></g></svg>